<mxfile host="Electron" modified="2024-06-29T07:19:58.438Z" agent="Mozilla/5.0 (Windows NT 10.0; Win64; x64) AppleWebKit/537.36 (KHTML, like Gecko) draw.io/22.0.3 Chrome/114.0.5735.289 Electron/25.8.4 Safari/537.36" etag="SzeDA_GyICzTGaXd83bZ" version="22.0.3" type="device">
  <diagram name="第 1 页" id="KesV4IRkSVqFw5X2bUM5">
    <mxGraphModel dx="1018" dy="686" grid="0" gridSize="10" guides="1" tooltips="1" connect="1" arrows="1" fold="1" page="0" pageScale="1" pageWidth="827" pageHeight="1169" math="0" shadow="0">
      <root>
        <mxCell id="0" />
        <mxCell id="1" parent="0" />
        <mxCell id="9k0TbZKdQOA3wjvnUsYZ-1" value="" style="image;html=1;image=img/lib/clip_art/computers/Monitor_Tower_128x128.png" vertex="1" parent="1">
          <mxGeometry x="190" y="90" width="80" height="80" as="geometry" />
        </mxCell>
        <mxCell id="9k0TbZKdQOA3wjvnUsYZ-2" value="" style="image;aspect=fixed;html=1;points=[];align=center;fontSize=12;image=img/lib/azure2/app_services/App_Service_Plans.svg;" vertex="1" parent="1">
          <mxGeometry x="368" y="241" width="64" height="64" as="geometry" />
        </mxCell>
        <mxCell id="9k0TbZKdQOA3wjvnUsYZ-6" value="" style="image;aspect=fixed;html=1;points=[];align=center;fontSize=12;image=img/lib/azure2/azure_stack/User_Subscriptions.svg;" vertex="1" parent="1">
          <mxGeometry x="36" y="240" width="68" height="66" as="geometry" />
        </mxCell>
        <mxCell id="9k0TbZKdQOA3wjvnUsYZ-7" value="" style="shape=flexArrow;endArrow=classic;html=1;rounded=0;" edge="1" parent="1">
          <mxGeometry width="50" height="50" relative="1" as="geometry">
            <mxPoint x="117" y="210" as="sourcePoint" />
            <mxPoint x="167" y="160" as="targetPoint" />
          </mxGeometry>
        </mxCell>
        <mxCell id="9k0TbZKdQOA3wjvnUsYZ-8" value="" style="shape=flexArrow;endArrow=classic;html=1;rounded=0;" edge="1" parent="1">
          <mxGeometry width="50" height="50" relative="1" as="geometry">
            <mxPoint x="300" y="160" as="sourcePoint" />
            <mxPoint x="350" y="210" as="targetPoint" />
          </mxGeometry>
        </mxCell>
        <mxCell id="9k0TbZKdQOA3wjvnUsYZ-9" value="" style="shape=flexArrow;endArrow=classic;startArrow=classic;html=1;rounded=0;dashed=1;" edge="1" parent="1">
          <mxGeometry width="100" height="100" relative="1" as="geometry">
            <mxPoint x="160" y="272.58" as="sourcePoint" />
            <mxPoint x="300" y="272.58" as="targetPoint" />
          </mxGeometry>
        </mxCell>
        <mxCell id="9k0TbZKdQOA3wjvnUsYZ-10" value="Tunnel" style="text;html=1;strokeColor=none;fillColor=none;align=center;verticalAlign=middle;whiteSpace=wrap;rounded=0;fontSize=19;fontStyle=1" vertex="1" parent="1">
          <mxGeometry x="179" y="220" width="101" height="30" as="geometry" />
        </mxCell>
        <mxCell id="9k0TbZKdQOA3wjvnUsYZ-11" value="" style="image;html=1;image=img/lib/clip_art/computers/Monitor_Tower_128x128.png" vertex="1" parent="1">
          <mxGeometry x="340" y="733" width="80" height="80" as="geometry" />
        </mxCell>
        <mxCell id="9k0TbZKdQOA3wjvnUsYZ-12" value="" style="image;aspect=fixed;html=1;points=[];align=center;fontSize=12;image=img/lib/azure2/app_services/App_Service_Plans.svg;" vertex="1" parent="1">
          <mxGeometry x="198" y="590" width="64" height="64" as="geometry" />
        </mxCell>
        <mxCell id="9k0TbZKdQOA3wjvnUsYZ-13" value="" style="image;aspect=fixed;html=1;points=[];align=center;fontSize=12;image=img/lib/azure2/azure_stack/User_Subscriptions.svg;" vertex="1" parent="1">
          <mxGeometry x="32" y="740" width="68" height="66" as="geometry" />
        </mxCell>
        <mxCell id="9k0TbZKdQOA3wjvnUsYZ-14" value="" style="shape=flexArrow;endArrow=classic;html=1;rounded=0;" edge="1" parent="1">
          <mxGeometry width="50" height="50" relative="1" as="geometry">
            <mxPoint x="113" y="710" as="sourcePoint" />
            <mxPoint x="163" y="660" as="targetPoint" />
          </mxGeometry>
        </mxCell>
        <mxCell id="9k0TbZKdQOA3wjvnUsYZ-15" value="" style="shape=flexArrow;endArrow=classic;html=1;rounded=0;" edge="1" parent="1">
          <mxGeometry width="50" height="50" relative="1" as="geometry">
            <mxPoint x="296" y="660" as="sourcePoint" />
            <mxPoint x="346" y="710" as="targetPoint" />
          </mxGeometry>
        </mxCell>
        <mxCell id="9k0TbZKdQOA3wjvnUsYZ-16" value="" style="shape=flexArrow;endArrow=classic;startArrow=classic;html=1;rounded=0;dashed=1;" edge="1" parent="1">
          <mxGeometry width="100" height="100" relative="1" as="geometry">
            <mxPoint x="156" y="772.5799999999999" as="sourcePoint" />
            <mxPoint x="296" y="772.5799999999999" as="targetPoint" />
          </mxGeometry>
        </mxCell>
        <mxCell id="9k0TbZKdQOA3wjvnUsYZ-17" value="Reverse Tunnel" style="text;html=1;strokeColor=none;fillColor=none;align=center;verticalAlign=middle;whiteSpace=wrap;rounded=0;fontSize=19;fontStyle=1" vertex="1" parent="1">
          <mxGeometry x="130" y="720" width="200" height="30" as="geometry" />
        </mxCell>
      </root>
    </mxGraphModel>
  </diagram>
</mxfile>
